<svg width="600" height="380" viewBox="0 0 600 380" fill="none" xmlns="http://www.w3.org/2000/svg">
  <rect width="600" height="380" rx="12" fill="#0B132B"/>
  <!-- Editor Header -->
  <rect width="600" height="36" fill="#1E293B"/>
  <circle cx="20" cy="18" r="5" fill="#EF4444"/>
  <circle cx="36" cy="18" r="5" fill="#F59E0B"/>
  <circle cx="52" cy="18" r="5" fill="#10B981"/>
  <rect x="80" y="8" width="140" height="28" rx="4" fill="#0B132B"/>
  <text x="150" y="26" fill="#38BDF8" font-family="'Inter', monospace" font-size="11" text-anchor="middle">ServerController.js</text>
  <rect x="225" y="8" width="110" height="28" rx="4" fill="#1E293B"/>
  <text x="280" y="26" fill="#64748B" font-family="'Inter', monospace" font-size="11" text-anchor="middle">schema.sql</text>

  <!-- Sidebar File Explorer -->
  <rect x="0" y="36" width="130" height="344" fill="#0F172A" stroke="#1E293B" stroke-width="1"/>
  <text x="16" y="60" fill="#94A3B8" font-family="'Inter', sans-serif" font-size="10" font-weight="bold">EXPLORER</text>
  <text x="24" y="85" fill="#CBD5E1" font-family="'Inter', monospace" font-size="10">▼ src</text>
  <text x="36" y="105" fill="#93C5FD" font-family="'Inter', monospace" font-size="10">controllers/</text>
  <text x="36" y="125" fill="#93C5FD" font-family="'Inter', monospace" font-size="10">models/</text>
  <text x="36" y="145" fill="#93C5FD" font-family="'Inter', monospace" font-size="10">routes/</text>
  <text x="24" y="170" fill="#CBD5E1" font-family="'Inter', monospace" font-size="10">app.js</text>
  <text x="24" y="190" fill="#F59E0B" font-family="'Inter', monospace" font-size="10">package.json</text>

  <!-- Code Area -->
  <g font-family="'Inter', monospace" font-size="11">
    <text x="150" y="70" fill="#64748B">1</text>
    <text x="175" y="70" fill="#F472B6">const</text>
    <text x="220" y="70" fill="#93C5FD">express</text>
    <text x="275" y="70" fill="#F472B6">=</text>
    <text x="290" y="70" fill="#34D399">require('express');</text>

    <text x="150" y="95" fill="#64748B">2</text>
    <text x="175" y="95" fill="#F472B6">const</text>
    <text x="220" y="95" fill="#FBBF24">router</text>
    <text x="270" y="95" fill="#F472B6">=</text>
    <text x="285" y="95" fill="#60A5FA">express.Router();</text>

    <text x="150" y="120" fill="#64748B">3</text>
    <text x="175" y="120" fill="#64748B">// Production Capstone Lead Handler</text>

    <text x="150" y="145" fill="#64748B">4</text>
    <text x="175" y="145" fill="#FBBF24">router</text>
    <text x="220" y="145" fill="#60A5FA">.post('/counselling',</text>
    <text x="375" y="145" fill="#F472B6">async</text>
    <text x="420" y="145" fill="#60A5FA">(req, res) => {</text>

    <text x="150" y="170" fill="#64748B">5</text>
    <text x="195" y="170" fill="#F472B6">const</text>
    <text x="235" y="170" fill="#E2E8F0">{ name, track, city } = req.body;</text>

    <text x="150" y="195" fill="#64748B">6</text>
    <text x="195" y="195" fill="#F472B6">const</text>
    <text x="235" y="195" fill="#E2E8F0">record =</text>
    <text x="300" y="195" fill="#F472B6">await</text>
    <text x="345" y="195" fill="#60A5FA">Student.save({ ... });</text>

    <text x="150" y="220" fill="#64748B">7</text>
    <text x="195" y="220" fill="#F472B6">return</text>
    <text x="245" y="220" fill="#60A5FA">res.status(201).json(record);</text>

    <text x="150" y="245" fill="#64748B">8</text>
    <text x="175" y="245" fill="#60A5FA">});</text>
  </g>

  <!-- Terminal Panel at Bottom -->
  <rect x="130" y="270" width="470" height="110" fill="#030712" stroke="#1E293B"/>
  <rect x="130" y="270" width="470" height="24" fill="#0F172A"/>
  <text x="145" y="286" fill="#94A3B8" font-family="'Inter', sans-serif" font-size="10" font-weight="bold">TERMINAL: bash</text>

  <g font-family="'Inter', monospace" font-size="11">
    <text x="145" y="312" fill="#10B981">~/miracle-project$</text>
    <text x="280" y="312" fill="#E2E8F0">git commit -m "feat: complete capstone api"</text>
    <text x="145" y="332" fill="#94A3B8">[main 8f3d1a4] 14 files changed, 240 insertions(+)</text>
    <text x="145" y="352" fill="#38BDF8">✔ Tests Passing: 18/18 verified in Bhopal Lab</text>
  </g>
</svg>
