<svg xmlns="http://www.w3.org/2000/svg" viewBox="0 0 24 24" width="24" height="24"><path fill="#4169E1" d="M12 2C6.5 2 2 6.5 2 12c0 4.6 3.1 8.5 7.4 9.6v-3.5c-.7.2-1.4.3-2.1.2-.5 0-.9-.3-1.1-.7-.3-.6 0-1.3.6-1.5 1-.4 2-.7 3.1-.7.2-1 .7-2 1.5-2.7-1.1-.3-2.2-.8-3.1-1.5-.7-.6-1.2-1.3-1.4-2.1-.2-.9.1-1.8.8-2.4 1.1-.9 2.7-1.2 4.4-.9 1.5.3 2.8 1.1 3.7 2.3.9 1.2 1.3 2.6 1.1 4.1-.1 1-.5 2-1.2 2.8 1.4.4 2.6 1.3 3.3 2.5.7 1.2.9 2.7.4 4.1-.4 1.1-1.3 2-2.4 2.5 1.7-1 3-2.5 3.8-4.3C21.7 18 22 15.1 22 12c0-5.5-4.5-10-10-10z"/></svg>